<svg xmlns="http://www.w3.org/2000/svg" xmlns:xlink="http://www.w3.org/1999/xlink" width="98" zoomAndPan="magnify" viewBox="0 0 73.5 50.249999" height="67" preserveAspectRatio="xMidYMid meet" version="1.0"><defs><clipPath id="id1"><path d="M 0.292969 0 L 72.714844 0 L 72.714844 49.511719 L 0.292969 49.511719 Z M 0.292969 0 " clip-rule="nonzero"/></clipPath><clipPath id="id2"><path d="M 32 11 L 61.675781 11 L 61.675781 49.511719 L 32 49.511719 Z M 32 11 " clip-rule="nonzero"/></clipPath><clipPath id="id3"><path d="M 11.824219 0 L 61.675781 0 L 61.675781 49.511719 L 11.824219 49.511719 Z M 11.824219 0 " clip-rule="nonzero"/></clipPath></defs><g clip-path="url(#id1)"><path fill="#ffffff" d="M 0.292969 0 L 73.207031 0 L 73.207031 56.542969 L 0.292969 56.542969 Z M 0.292969 0 " fill-opacity="1" fill-rule="nonzero"/><path fill="#ffffff" d="M 0.292969 0 L 73.207031 0 L 73.207031 49.847656 L 0.292969 49.847656 Z M 0.292969 0 " fill-opacity="1" fill-rule="nonzero"/><path fill="#ffffff" d="M 0.292969 0 L 73.207031 0 L 73.207031 49.847656 L 0.292969 49.847656 Z M 0.292969 0 " fill-opacity="1" fill-rule="nonzero"/><path fill="#ffffff" d="M 0.292969 0 L 73.207031 0 L 73.207031 49.847656 L 0.292969 49.847656 Z M 0.292969 0 " fill-opacity="1" fill-rule="nonzero"/></g><g clip-path="url(#id2)"><path fill="#7ed957" d="M 61.675781 11.492188 L 61.675781 43.007812 C 61.675781 46.769531 58.597656 49.847656 54.835938 49.847656 L 45.402344 49.847656 C 46.203125 48.542969 48.234375 46.335938 52.253906 42.574219 C 63.214844 32.320312 55.441406 27.625 46.796875 25.152344 C 39.960938 23.199219 32.550781 22.582031 32.75 20.359375 C 33.0625 16.835938 52.964844 13.316406 61.675781 11.492188 Z M 61.675781 11.492188 " fill-opacity="1" fill-rule="evenodd"/></g><g clip-path="url(#id3)"><path fill="#38b6ff" d="M 18.664062 0 L 61.675781 0 L 61.675781 11.054688 C 52.621094 11.265625 32.082031 15.410156 27.320312 18.90625 C 24.25 21.160156 23.871094 24 29.753906 27.265625 C 34.855469 30.097656 32.707031 28.410156 38.0625 30.640625 C 38.238281 30.714844 38.414062 30.792969 38.589844 30.871094 C 50.304688 35.808594 28.554688 44.378906 11.824219 49.847656 L 11.824219 6.839844 C 11.824219 3.078125 14.902344 0 18.664062 0 Z M 18.664062 0 " fill-opacity="1" fill-rule="evenodd"/></g></svg>