<svg xmlns="http://www.w3.org/2000/svg" xmlns:xlink="http://www.w3.org/1999/xlink" width="269" zoomAndPan="magnify" viewBox="0 0 201.75 42" height="56" preserveAspectRatio="xMidYMid meet" version="1.0"><defs><g/><clipPath id="id1"><path d="M 30 9 L 54.671875 9 L 54.671875 41.023438 L 30 41.023438 Z M 30 9 " clip-rule="nonzero"/></clipPath><clipPath id="id2"><path d="M 13.597656 0 L 54.671875 0 L 54.671875 41.023438 L 13.597656 41.023438 Z M 13.597656 0 " clip-rule="nonzero"/></clipPath></defs><g clip-path="url(#id1)"><path fill="#7ed957" d="M 54.671875 9.46875 L 54.671875 35.4375 C 54.671875 38.539062 52.136719 41.074219 49.039062 41.074219 L 41.265625 41.074219 C 41.925781 40 43.601562 38.179688 46.910156 35.078125 C 55.945312 26.628906 49.535156 22.761719 42.414062 20.726562 C 36.78125 19.113281 30.675781 18.609375 30.839844 16.777344 C 31.097656 13.871094 47.5 10.972656 54.671875 9.46875 Z M 54.671875 9.46875 " fill-opacity="1" fill-rule="evenodd"/></g><g clip-path="url(#id2)"><path fill="#38b6ff" d="M 19.234375 0 L 54.671875 0 L 54.671875 9.109375 C 47.214844 9.28125 30.292969 12.699219 26.367188 15.578125 C 23.835938 17.433594 23.523438 19.773438 28.371094 22.464844 C 32.574219 24.800781 30.804688 23.410156 35.21875 25.25 C 35.363281 25.308594 35.507812 25.371094 35.652344 25.4375 C 45.304688 29.507812 27.382812 36.570312 13.597656 41.074219 L 13.597656 5.636719 C 13.597656 2.535156 16.132812 0 19.234375 0 Z M 19.234375 0 " fill-opacity="1" fill-rule="evenodd"/></g><g fill="#38b6ff" fill-opacity="1"><g transform="translate(59.457718, 13.472539)"><g><path d="M 0.910156 0 L 9.046875 0 L 9.046875 -1.300781 L 2.378906 -1.300781 L 2.378906 -5.851562 L 8.789062 -5.851562 L 8.789062 -7.132812 L 2.378906 -7.132812 L 2.378906 -11.722656 L 9.046875 -11.722656 L 9.046875 -13.003906 L 0.910156 -13.003906 Z M 0.910156 0 "/></g></g></g><g fill="#38b6ff" fill-opacity="1"><g transform="translate(74.060228, 13.472539)"><g><path d="M 0.910156 0 L 9.027344 0 L 9.027344 -1.28125 L 2.398438 -1.28125 L 2.398438 -13.003906 L 0.910156 -13.003906 Z M 0.910156 0 "/></g></g></g><g fill="#38b6ff" fill-opacity="1"><g transform="translate(88.495543, 13.472539)"><g/></g></g><g fill="#38b6ff" fill-opacity="1"><g transform="translate(97.599163, 13.472539)"><g><path d="M 5.832031 0.296875 C 7.839844 0.296875 9.867188 -0.707031 10.757812 -3.269531 L 9.476562 -3.605469 C 8.824219 -1.746094 7.207031 -1.023438 5.832031 -1.023438 C 3.472656 -1.023438 1.820312 -3.289062 1.820312 -6.519531 C 1.820312 -9.753906 3.472656 -11.984375 5.832031 -11.984375 C 7.246094 -11.984375 8.695312 -11.351562 9.402344 -9.382812 L 10.644531 -9.679688 C 10.03125 -12 8.25 -13.285156 5.832031 -13.285156 C 2.546875 -13.285156 0.335938 -10.441406 0.335938 -6.519531 C 0.335938 -3.160156 2.082031 0.296875 5.832031 0.296875 Z M 5.832031 0.296875 "/></g></g></g><g fill="#38b6ff" fill-opacity="1"><g transform="translate(113.539239, 13.472539)"><g><path d="M -0.242188 0 L 1.375 0 L 2.730469 -3.417969 L 8.863281 -3.417969 L 10.21875 0 L 11.835938 0 L 6.503906 -13.117188 L 5.089844 -13.117188 Z M 3.269531 -4.699219 L 4.71875 -8.398438 L 5.796875 -11.519531 L 6.875 -8.398438 L 8.324219 -4.699219 Z M 3.269531 -4.699219 "/></g></g></g><g fill="#38b6ff" fill-opacity="1"><g transform="translate(130.036647, 13.472539)"><g><path d="M 0.929688 0 L 2.398438 0 L 2.398438 -7.226562 L 2.359375 -10.832031 L 6.59375 -3.753906 L 7.449219 -3.753906 L 11.6875 -10.832031 L 11.648438 -7.226562 L 11.648438 0 L 13.117188 0 L 13.117188 -13.003906 L 11.5 -13.003906 L 7.023438 -5.554688 L 2.546875 -13.003906 L 0.929688 -13.003906 Z M 0.929688 0 "/></g></g></g><g fill="#38b6ff" fill-opacity="1"><g transform="translate(149.116293, 13.472539)"><g><path d="M 0.964844 0 L 2.433594 0 L 2.433594 -13.003906 L 0.964844 -13.003906 Z M 0.964844 0 "/></g></g></g><g fill="#38b6ff" fill-opacity="1"><g transform="translate(157.551128, 13.472539)"><g><path d="M 0.929688 0 L 2.398438 0 L 2.398438 -7.785156 L 2.324219 -10.90625 L 2.339844 -10.90625 L 3.753906 -8.472656 L 9.363281 0 L 10.832031 0 L 10.832031 -13.003906 L 9.363281 -13.003906 L 9.363281 -5.21875 L 9.53125 -1.894531 L 7.671875 -5.089844 L 2.339844 -13.003906 L 0.929688 -13.003906 Z M 0.929688 0 "/></g></g></g><g fill="#38b6ff" fill-opacity="1"><g transform="translate(174.345767, 13.472539)"><g><path d="M 5.890625 0.261719 C 9.195312 0.261719 11.371094 -2.5625 11.371094 -6.503906 C 11.371094 -10.441406 9.195312 -13.285156 5.890625 -13.285156 C 2.582031 -13.285156 0.410156 -10.441406 0.410156 -6.503906 C 0.410156 -2.5625 2.582031 0.261719 5.890625 0.261719 Z M 5.890625 -1.039062 C 3.53125 -1.039062 1.875 -3.289062 1.875 -6.503906 C 1.875 -9.734375 3.53125 -11.984375 5.890625 -11.984375 C 8.25 -11.984375 9.902344 -9.734375 9.902344 -6.503906 C 9.902344 -3.289062 8.25 -1.039062 5.890625 -1.039062 Z M 5.890625 -1.039062 "/></g></g></g><g fill="#38b6ff" fill-opacity="1"><g transform="translate(59.457718, 40.610775)"><g><path d="M 0.910156 0 L 2.378906 0 L 2.378906 -5.851562 L 8.675781 -5.851562 L 8.675781 -7.132812 L 2.378906 -7.132812 L 2.378906 -11.722656 L 9.027344 -11.722656 L 9.027344 -13.003906 L 0.910156 -13.003906 Z M 0.910156 0 "/></g></g></g><g fill="#38b6ff" fill-opacity="1"><g transform="translate(73.893033, 40.610775)"><g><path d="M 0.964844 0 L 2.433594 0 L 2.433594 -13.003906 L 0.964844 -13.003906 Z M 0.964844 0 "/></g></g></g><g fill="#38b6ff" fill-opacity="1"><g transform="translate(82.327865, 40.610775)"><g><path d="M 0.929688 0 L 2.398438 0 L 2.398438 -7.785156 L 2.324219 -10.90625 L 2.339844 -10.90625 L 3.753906 -8.472656 L 9.363281 0 L 10.832031 0 L 10.832031 -13.003906 L 9.363281 -13.003906 L 9.363281 -5.21875 L 9.53125 -1.894531 L 7.671875 -5.089844 L 2.339844 -13.003906 L 0.929688 -13.003906 Z M 0.929688 0 "/></g></g></g><g fill="#38b6ff" fill-opacity="1"><g transform="translate(99.122502, 40.610775)"><g><path d="M -0.242188 0 L 1.375 0 L 2.730469 -3.417969 L 8.863281 -3.417969 L 10.21875 0 L 11.835938 0 L 6.503906 -13.117188 L 5.089844 -13.117188 Z M 3.269531 -4.699219 L 4.71875 -8.398438 L 5.796875 -11.519531 L 6.875 -8.398438 L 8.324219 -4.699219 Z M 3.269531 -4.699219 "/></g></g></g><g fill="#38b6ff" fill-opacity="1"><g transform="translate(115.619907, 40.610775)"><g><path d="M 0.929688 0 L 2.398438 0 L 2.398438 -7.785156 L 2.324219 -10.90625 L 2.339844 -10.90625 L 3.753906 -8.472656 L 9.363281 0 L 10.832031 0 L 10.832031 -13.003906 L 9.363281 -13.003906 L 9.363281 -5.21875 L 9.53125 -1.894531 L 7.671875 -5.089844 L 2.339844 -13.003906 L 0.929688 -13.003906 Z M 0.929688 0 "/></g></g></g><g fill="#38b6ff" fill-opacity="1"><g transform="translate(132.414546, 40.610775)"><g><path d="M 5.832031 0.296875 C 7.839844 0.296875 9.867188 -0.707031 10.757812 -3.269531 L 9.476562 -3.605469 C 8.824219 -1.746094 7.207031 -1.023438 5.832031 -1.023438 C 3.472656 -1.023438 1.820312 -3.289062 1.820312 -6.519531 C 1.820312 -9.753906 3.472656 -11.984375 5.832031 -11.984375 C 7.246094 -11.984375 8.695312 -11.351562 9.402344 -9.382812 L 10.644531 -9.679688 C 10.03125 -12 8.25 -13.285156 5.832031 -13.285156 C 2.546875 -13.285156 0.335938 -10.441406 0.335938 -6.519531 C 0.335938 -3.160156 2.082031 0.296875 5.832031 0.296875 Z M 5.832031 0.296875 "/></g></g></g><g fill="#38b6ff" fill-opacity="1"><g transform="translate(148.354625, 40.610775)"><g><path d="M 0.964844 0 L 2.433594 0 L 2.433594 -13.003906 L 0.964844 -13.003906 Z M 0.964844 0 "/></g></g></g><g fill="#38b6ff" fill-opacity="1"><g transform="translate(156.789459, 40.610775)"><g><path d="M -0.242188 0 L 1.375 0 L 2.730469 -3.417969 L 8.863281 -3.417969 L 10.21875 0 L 11.835938 0 L 6.503906 -13.117188 L 5.089844 -13.117188 Z M 3.269531 -4.699219 L 4.71875 -8.398438 L 5.796875 -11.519531 L 6.875 -8.398438 L 8.324219 -4.699219 Z M 3.269531 -4.699219 "/></g></g></g><g fill="#38b6ff" fill-opacity="1"><g transform="translate(173.286867, 40.610775)"><g><path d="M 0.910156 0 L 9.027344 0 L 9.027344 -1.28125 L 2.398438 -1.28125 L 2.398438 -13.003906 L 0.910156 -13.003906 Z M 0.910156 0 "/></g></g></g></svg>